<svg width="709" height="230" viewBox="0 0 709 230" fill="none" xmlns="http://www.w3.org/2000/svg">
<path d="M701.984 52.5633C702.044 50.6833 702.494 48.8633 703.044 47.0733C684.534 44.5533 651.404 40.0433 648.674 39.6933C645.484 39.2933 576.134 55.9333 553.674 61.3633C549.454 62.3833 545.004 61.7233 541.254 59.5333C538.304 57.8033 534.454 55.8133 530.534 54.4633C524.604 52.4333 504.244 47.9433 493.134 45.5533C488.314 44.5133 483.324 44.7133 478.604 46.1333C458.984 52.0333 405.444 68.0933 400.014 69.3633C393.344 70.9233 383.814 61.1333 369.524 60.1833C358.684 59.4633 329.744 62.0233 316.404 63.3133C311.814 63.7533 307.194 63.1933 302.854 61.6633L267.374 49.1733C261.604 47.1433 255.224 47.7733 249.974 50.9133C242.924 55.1333 233.124 60.5633 228.524 61.1333C220.904 62.0833 171.354 39.2233 161.834 39.6933C152.304 40.1633 58.934 76.3833 54.174 76.3833C51.524 76.3833 30.304 53.3933 11.504 33.1533C11.014 33.6433 -4.89603 41.8933 1.52397 58.3133C1.68397 58.7233 1.83397 59.1233 2.15397 59.4533C5.11397 62.5133 6.88397 66.2033 7.76397 70.3333C8.05397 71.6833 8.60397 72.9633 9.36397 74.1133C10.554 75.9133 11.524 77.7733 11.634 80.0433C11.694 81.3233 12.734 82.3833 13.234 83.5733C13.984 85.3733 15.824 86.2033 16.794 87.7833C16.814 87.8133 16.874 87.8233 16.884 87.8533C17.964 90.4733 20.344 91.4533 22.674 92.5733C25.844 94.0933 28.894 95.8233 31.424 98.3233C31.924 98.8133 32.624 98.9133 33.234 99.1533C35.954 100.223 38.244 101.913 40.464 103.773C43.104 105.983 45.484 108.463 47.824 110.953C51.374 114.733 53.534 119.213 53.104 124.573C52.944 126.523 52.354 128.433 52.094 130.373C51.774 132.773 51.794 135.153 52.414 137.543C53.454 141.513 55.834 144.583 58.784 147.323C60.504 148.923 62.204 150.553 63.754 152.323C65.864 154.733 68.164 156.973 70.354 159.303C74.084 163.273 77.504 167.513 81.384 171.323C84.804 174.683 88.964 176.603 93.804 177.023C99.154 177.493 103.924 176.103 108.064 172.663C111.034 170.193 112.594 166.593 114.304 163.273C115.094 161.733 115.824 160.153 116.534 158.563C119.194 152.653 123.694 149.113 129.954 147.753C133.154 147.063 136.384 146.653 139.644 146.813C145.704 147.123 151.574 148.353 157.034 151.123C160.724 152.993 163.984 155.403 166.654 158.623C169.604 162.173 173.684 164.633 178.254 165.233C180.964 165.583 183.734 165.473 186.444 164.933C190.104 164.203 201.264 160.783 202.384 161.333C205.454 162.863 208.794 163.453 212.054 164.343C217.934 165.953 223.854 167.493 229.124 170.743C230.684 171.703 231.844 173.153 232.774 174.593C234.054 176.563 235.374 178.603 235.654 181.113C235.864 182.923 235.674 184.693 235.414 186.443C235.114 188.433 235.194 190.243 235.814 192.223C237.104 196.353 240.534 197.723 243.954 199.073C248.374 200.823 253.234 200.843 257.734 202.213C262.704 203.733 267.834 204.223 272.914 204.993C276.984 205.613 281.134 205.753 285.084 203.943C288.154 202.543 290.404 200.273 292.354 197.613C294.884 194.163 296.634 190.273 298.814 186.623C300.394 183.973 305.084 179.553 305.154 179.433C307.794 175.103 319.624 177.313 320.854 179.263C322.084 181.213 323.544 182.783 324.624 184.743C326.014 187.253 326.334 190.083 327.174 192.753C328.654 197.423 330.734 201.763 333.714 205.633C335.264 207.643 337.104 209.403 339.134 210.923C340.844 212.213 342.444 213.623 344.064 215.023C346.314 216.963 348.674 218.793 350.864 220.793C352.564 222.343 354.344 223.783 356.144 225.223C358.594 227.183 361.364 228.523 364.374 229.413L369.174 229.243C370.894 228.583 372.594 227.893 374.234 227.033C378.674 224.713 383.114 222.393 387.624 220.223C398.534 214.993 409.764 210.623 421.534 207.723C421.984 207.613 436.584 204.393 437.924 204.453C438.714 204.493 445.254 205.013 446.104 205.073C448.264 205.223 450.414 205.563 452.574 205.733C453.634 205.813 454.694 205.913 455.764 206.013C458.034 206.233 460.314 206.543 462.584 206.703C465.264 206.883 467.914 207.283 470.594 207.483C473.264 207.683 475.914 208.183 478.584 208.403C480.324 208.543 482.094 208.433 483.854 208.423C489.864 208.393 495.594 207.183 500.934 204.363C502.764 203.393 504.494 202.273 506.144 201.003C507.634 199.843 509.344 199.193 511.294 199.073C514.984 198.843 518.654 199.273 522.324 199.393C525.664 199.503 528.984 200.003 532.294 200.503C534.974 200.903 537.714 200.893 540.414 201.213C545.414 201.813 550.404 202.423 555.284 203.843C559.294 205.013 562.864 207.063 566.554 208.903C572.844 212.053 578.844 210.933 584.484 207.093C588.924 204.063 591.074 199.603 592.364 194.573C594.044 188.003 595.604 181.393 597.664 174.943C598.794 171.413 600.824 168.283 604.794 166.883C607.514 165.923 610.014 164.363 612.654 163.163C617.844 160.803 623.124 158.613 628.264 156.133C632.984 153.853 637.544 151.233 642.224 148.863C646.334 146.773 650.624 145.133 655.204 144.383C655.714 144.303 656.064 144.023 656.424 143.683C658.174 142.013 660.214 140.903 662.634 140.533C663.214 140.443 663.734 140.293 664.034 139.743C665.464 137.163 667.854 122.193 676.864 118.093C679.074 117.093 680.644 115.293 683.044 114.883C686.114 114.363 688.764 112.953 690.884 110.773C693.394 108.193 695.004 105.133 694.834 101.343C694.764 99.8733 694.804 98.4033 694.634 96.9233C694.044 91.9333 696.144 88.0733 699.924 84.9933C700.724 84.3333 701.564 83.7033 702.444 83.1633C705.594 81.2533 707.334 78.4233 708.034 74.8833C708.104 74.5333 708.194 74.1933 708.274 73.8533V70.0133C707.574 66.8333 705.584 64.2833 704.164 61.4533C702.764 58.6733 701.964 55.7033 702.054 52.5733L701.984 52.5633Z" fill="#1882FF"/>
<path d="M331.454 124.667H328.262V127.859C328.262 132.059 326.582 136.355 322.838 138.083L324.806 140.627C327.278 139.379 328.934 137.075 329.894 134.243C330.806 136.907 332.414 139.067 334.838 140.243L336.71 137.723C333.062 136.091 331.454 132.035 331.454 127.859V124.667ZM338.534 122.939V129.875H334.286V132.419H338.534V145.115H341.702V122.939H338.534ZM358.428 132.491C357.588 132.587 356.7 132.683 355.812 132.731C356.364 129.611 356.364 127.307 356.364 125.723V124.475H345.708V126.995H353.22C353.196 128.483 353.076 130.427 352.596 132.923C349.596 133.067 346.572 133.091 343.908 133.091L344.316 135.659C345.9 135.659 347.628 135.635 349.428 135.587V143.891H352.596V135.419C354.588 135.299 356.652 135.131 358.644 134.819L358.428 132.491ZM359.676 122.939V145.043H362.844V122.939H359.676ZM372.61 127.307H377.122V133.571H372.61V127.307ZM376.45 140.027V136.091H383.194V133.571H380.266V127.307H383.266V124.787H366.466V127.307H369.466V133.571H366.586V136.091H373.282V140.027H364.906V142.571H384.922V140.027H376.45ZM394.352 124.667H391.184V127.883C391.184 132.179 389.36 136.451 385.496 138.107L387.392 140.723C390.032 139.475 391.832 137.099 392.816 134.147C393.8 136.859 395.504 139.043 398.048 140.195L399.848 137.627C396.104 136.019 394.352 131.987 394.352 127.883V124.667ZM400.928 122.939V145.115H404.096V122.939H400.928Z" fill="white"/>
<path d="M216.364 102.453C216.364 102.453 209.734 102.103 209.804 109.633C209.874 117.163 215.954 118.263 217.674 118.333C217.674 118.333 215.534 124.203 221.404 127.933C227.274 131.663 230.924 126.273 230.924 126.273C230.924 126.273 238.264 128.623 241.924 125.163C245.584 121.703 242.274 114.593 242.274 114.593C242.274 114.593 245.174 111.003 242.414 104.993C239.654 98.9833 232.394 101.543 232.394 101.543C232.394 101.543 231.914 94.4933 225.214 94.7033C218.514 94.9133 216.994 98.0833 216.374 102.443L216.364 102.453Z" fill="#FF7676"/>
<path d="M234.364 108.593C234.364 108.123 233.984 107.733 233.504 107.733C233.154 107.733 232.864 107.943 232.724 108.233C231.624 106.893 229.964 106.033 228.094 106.033C227.514 106.033 226.954 106.123 226.424 106.273C226.294 105.963 225.994 105.733 225.634 105.733C225.164 105.733 224.774 106.113 224.774 106.593C224.774 106.613 224.784 106.633 224.784 106.653C224.684 106.613 224.584 106.593 224.474 106.593C224.004 106.593 223.614 106.973 223.614 107.453C223.284 107.453 223.004 107.643 222.864 107.913C222.724 107.643 222.444 107.453 222.114 107.453C221.644 107.453 221.254 107.833 221.254 108.313C221.254 108.713 221.534 109.033 221.904 109.133C221.904 109.143 221.904 109.163 221.904 109.173C221.904 109.443 222.034 109.663 222.224 109.823C222.184 109.823 222.154 109.803 222.124 109.803C221.654 109.803 221.264 110.183 221.264 110.663C221.264 111.143 221.644 111.523 222.124 111.523C222.124 111.523 222.144 111.523 222.154 111.523C222.144 111.693 222.124 111.853 222.124 112.023C222.124 115.323 224.794 117.993 228.094 117.993C228.804 117.993 229.494 117.863 230.124 117.633C230.234 117.983 230.544 118.243 230.934 118.243C231.404 118.243 231.794 117.863 231.794 117.383C232.264 117.383 232.654 117.003 232.654 116.523C232.654 116.343 232.584 116.193 232.494 116.053C233.474 114.993 234.074 113.573 234.074 112.013C234.074 111.403 233.984 110.803 233.804 110.243C234.124 110.123 234.364 109.813 234.364 109.443C234.364 109.283 234.304 109.143 234.234 109.013C234.314 108.883 234.364 108.743 234.364 108.583V108.593Z" stroke="white" stroke-linejoin="round"/>
<path d="M228.354 114.873C230.071 114.873 231.464 113.481 231.464 111.763C231.464 110.046 230.071 108.653 228.354 108.653C226.636 108.653 225.244 110.046 225.244 111.763C225.244 113.481 226.636 114.873 228.354 114.873Z" fill="white"/>
<path d="M214.814 137.403C214.814 137.403 219.354 137.363 219.004 132.233C218.654 127.103 214.454 126.593 213.274 126.613C213.274 126.613 214.494 122.513 210.334 120.213C206.174 117.913 203.904 121.733 203.904 121.733C203.904 121.733 198.794 120.433 196.444 122.933C194.094 125.433 196.644 130.163 196.644 130.163C196.644 130.163 194.814 132.733 196.944 136.723C199.074 140.713 203.924 138.673 203.924 138.673C203.924 138.673 204.544 143.463 209.104 143.053C213.664 142.643 214.574 140.403 214.824 137.413L214.814 137.403Z" fill="#FF7676"/>
<path d="M202.274 133.953C202.294 134.273 202.574 134.523 202.894 134.503C203.134 134.493 203.324 134.333 203.404 134.123C204.204 134.993 205.384 135.513 206.654 135.433C207.054 135.413 207.424 135.323 207.784 135.203C207.884 135.413 208.104 135.553 208.344 135.533C208.664 135.513 208.914 135.233 208.894 134.913C208.894 134.893 208.894 134.883 208.884 134.873C208.954 134.893 209.024 134.903 209.094 134.903C209.414 134.883 209.664 134.603 209.644 134.283C209.864 134.273 210.054 134.123 210.134 133.933C210.244 134.113 210.444 134.233 210.664 134.223C210.984 134.203 211.234 133.923 211.214 133.603C211.194 133.333 210.994 133.123 210.734 133.073C210.734 133.073 210.734 133.053 210.734 133.043C210.724 132.863 210.624 132.713 210.494 132.613C210.514 132.613 210.544 132.623 210.564 132.613C210.884 132.593 211.134 132.313 211.114 131.993C211.094 131.673 210.814 131.423 210.494 131.443C210.494 131.443 210.484 131.443 210.474 131.443C210.474 131.333 210.474 131.213 210.474 131.103C210.334 128.853 208.404 127.133 206.154 127.273C205.664 127.303 205.204 127.423 204.784 127.603C204.694 127.373 204.474 127.203 204.204 127.223C203.884 127.243 203.634 127.523 203.654 127.843C203.334 127.863 203.084 128.143 203.104 128.463C203.104 128.583 203.164 128.683 203.234 128.773C202.614 129.543 202.254 130.533 202.324 131.593C202.354 132.013 202.434 132.413 202.574 132.783C202.354 132.883 202.214 133.103 202.224 133.353C202.224 133.463 202.274 133.553 202.334 133.643C202.284 133.733 202.254 133.833 202.264 133.943L202.274 133.953Z" stroke="white" stroke-linejoin="round"/>
<path d="M206.254 133.673C207.43 133.673 208.384 132.719 208.384 131.543C208.384 130.367 207.43 129.413 206.254 129.413C205.078 129.413 204.124 130.367 204.124 131.543C204.124 132.719 205.078 133.673 206.254 133.673Z" fill="white"/>
<path d="M535.114 45.3735H544.864L528.044 27.0435L511.234 45.3735H520.994L511.234 58.4935H519.644L511.234 71.2835H544.864L536.454 58.4935H544.864L535.114 45.3735Z" fill="#78A160"/>
<path d="M525.544 66.8733V82.7533C525.544 83.9933 525.314 85.2233 524.804 86.2433C524.404 87.0433 523.804 87.8533 522.884 88.3333H533.204C533.204 88.3333 531.314 86.9433 531.144 83.2733C530.934 78.8033 530.944 66.8633 530.944 66.8633H526.354" fill="white"/>
<path d="M529.484 68.6137L533.104 53.5137" stroke="white" stroke-width="2" stroke-miterlimit="10"/>
<path d="M530.744 60.5934L525.254 55.9434" stroke="white" stroke-width="2" stroke-miterlimit="10"/>
<path d="M526.284 68.1434L520.614 63.4434" stroke="white" stroke-width="2" stroke-miterlimit="10"/>
<path d="M523.184 65.5732L525.594 59.5532" stroke="white" stroke-width="2" stroke-miterlimit="10"/>
<path d="M552.824 62.2334H559.054L548.304 50.5234L537.564 62.2334H543.804L537.564 70.6234H542.944L537.564 78.7934H559.054L553.684 70.6234H559.054L552.824 62.2334Z" fill="#C9DD8F"/>
<path d="M546.704 75.9834V86.1334C546.704 86.9234 546.554 87.7134 546.234 88.3634C545.984 88.8734 545.594 89.3934 545.014 89.7034H551.614C551.614 89.7034 550.404 88.8134 550.294 86.4734C550.164 83.6134 550.164 75.9834 550.164 75.9834H547.234" fill="white"/>
<path d="M549.224 77.0934L551.544 67.4434" stroke="white" stroke-width="2" stroke-miterlimit="10"/>
<path d="M547.784 76.7935L544.154 73.7935" stroke="white" stroke-width="2" stroke-miterlimit="10"/>
<path d="M263.994 98.5933C263.994 98.5933 243.784 102.773 248.204 124.923C248.204 124.923 267.464 119.903 263.994 98.5933ZM251.364 119.243C251.364 119.243 251.324 119.223 251.304 119.213C251.094 119.083 251.004 118.823 251.104 118.593C256.634 105.633 259.824 104.063 259.954 104.003C260.204 103.893 260.504 104.003 260.614 104.253C260.724 104.503 260.614 104.793 260.374 104.913C260.304 104.953 257.274 106.673 252.014 118.993C251.904 119.243 251.614 119.363 251.354 119.253L251.364 119.243Z" fill="#C9DD8F"/>
<path d="M248.204 88.1934C248.204 88.1934 240.124 95.6334 248.204 104.533C248.204 104.533 255.614 96.9634 248.204 88.1934ZM248.094 101.073C248.094 101.073 248.074 101.073 248.054 101.073C247.924 101.073 247.804 100.973 247.794 100.843C246.764 93.4134 247.794 91.8234 247.834 91.7534C247.914 91.6334 248.084 91.6034 248.204 91.6834C248.324 91.7634 248.354 91.9334 248.274 92.0534C248.254 92.0934 247.344 93.7034 248.314 100.773C248.334 100.923 248.234 101.053 248.084 101.073H248.094Z" fill="#C9DD8F"/>
<path d="M447.344 148.793C446.894 148.793 446.534 149.153 446.534 149.603C446.534 150.053 446.894 150.413 447.344 150.413C447.794 150.413 448.154 150.053 448.154 149.603C448.154 149.153 447.794 148.793 447.344 148.793Z" fill="white"/>
<path d="M516.784 116.344C516.784 116.344 515.194 113.424 502.624 114.224C490.054 115.024 476.604 113.514 476.604 113.514C476.604 113.514 469.344 112.454 465.014 115.104C460.674 117.754 446.754 142.394 446.754 142.394C444.644 140.744 441.794 141.104 441.794 141.104C441.464 142.644 443.164 145.764 443.164 145.764C443.164 145.764 443.544 157.284 442.254 160.224C440.964 163.164 439.314 165.834 442.714 166.564C446.114 167.304 446.754 163.894 446.754 163.894C446.754 163.894 449.234 158.564 451.074 156.084C452.914 153.604 455.024 151.024 454.294 144.404C454.294 144.404 456.044 139.624 460.824 137.694C465.604 135.764 467.904 138.154 467.904 141.734V163.064L465.794 166.664V168.764H472.134V143.574L480.684 163.334L479.764 166.824L480.684 168.384L487.024 164.154L477.644 142.914C477.644 142.914 481.324 144.114 488.674 137.764C496.024 131.424 501.724 136.984 501.724 136.984C501.724 136.984 506.324 140.244 506.874 146.034V159.364L504.114 162.854L504.024 165.154L511.104 165.064V140.154L520.384 149.164V159.184L518.544 162.864L518.454 165.254L524.894 164.974V146.034L517.814 135.274C517.814 135.274 522.314 125.534 517.994 119.094L517.074 117.624C517.074 117.624 526.174 120.194 525.994 128.564C525.814 136.934 525.994 137.364 525.994 137.364H527.054V138.784L528.134 138.854V139.894L529.364 139.854V138.844H530.594V137.574L531.674 137.614V136.384C531.674 136.384 532.534 118.064 516.774 116.294L516.784 116.344ZM447.344 151.564C446.264 151.564 445.394 150.684 445.394 149.614C445.394 148.544 446.274 147.664 447.344 147.664C448.414 147.664 449.294 148.544 449.294 149.614C449.294 150.684 448.414 151.564 447.344 151.564ZM468.064 117.554C465.514 118.244 462.604 119.584 462.654 123.814C462.694 126.434 462.074 128.124 460.574 129.464C459.814 130.144 458.884 130.674 457.724 131.094C456.374 131.584 454.124 132.874 454.144 136.074C454.184 141.384 448.874 143.274 448.814 143.294C448.754 143.314 448.694 143.324 448.624 143.324C448.384 143.324 448.164 143.174 448.084 142.934C447.984 142.634 448.144 142.314 448.434 142.204C448.624 142.144 453.024 140.554 452.994 136.074C452.964 132.024 456.014 130.484 457.334 130.004C458.354 129.634 459.164 129.174 459.804 128.594C461.024 127.504 461.534 126.074 461.494 123.814C461.414 118.154 466.184 116.854 467.744 116.434C468.044 116.354 468.364 116.534 468.444 116.834C468.524 117.134 468.344 117.454 468.044 117.534L468.064 117.554Z" fill="white"/>
<path d="M151.134 44.1934H145.244V92.4534H151.134V44.1934Z" fill="white"/>
<path d="M120.044 67.3933C120.044 67.3933 119.544 47.2933 141.944 39.8133C145.014 38.7833 148.334 38.8533 150.974 40.2733C151.314 40.4533 151.654 40.6633 151.984 40.9033C153.094 41.7033 153.534 43.2133 152.944 44.5633C152.514 45.5433 151.584 46.4633 149.634 46.5633C149.634 46.5633 147.304 51.6933 142.774 51.2733C142.774 51.2733 139.764 57.2433 135.774 57.3833C135.774 57.3833 135.274 60.6633 131.154 62.0433L120.054 67.3933H120.044Z" fill="#78A160"/>
<path d="M169.734 61.2432C169.734 61.2432 170.124 45.5032 152.584 39.6432C150.174 38.8432 147.574 38.8932 145.514 40.0032C145.244 40.1432 144.984 40.3132 144.724 40.4932C143.854 41.1232 143.514 42.3032 143.974 43.3632C144.314 44.1332 145.044 44.8432 146.564 44.9332C146.564 44.9332 148.394 48.9532 151.944 48.6232C151.944 48.6232 154.304 53.3032 157.424 53.4132C157.424 53.4132 157.814 55.9832 161.044 57.0632L169.734 61.2532V61.2432Z" fill="#78A160"/>
<path d="M117.194 46.7535C117.194 46.7535 126.394 31.7535 146.414 36.9235C149.164 37.6335 151.564 39.2635 152.824 41.5635C152.984 41.8635 153.134 42.1735 153.264 42.5035C153.704 43.6235 153.304 44.9335 152.224 45.6435C151.444 46.1635 150.324 46.3835 148.834 45.5335C148.834 45.5335 144.674 48.1935 141.544 45.7235C141.544 45.7235 136.484 48.6735 133.494 46.8835C133.494 46.8835 131.564 49.0535 127.884 48.1035L117.184 46.7535H117.194Z" fill="#C9DD8F"/>
<path d="M172.904 39.0635C172.904 39.0635 163.594 28.4835 148.074 35.0335C145.944 35.9335 144.204 37.5135 143.474 39.4635C143.374 39.7135 143.294 39.9835 143.234 40.2535C143.024 41.1835 143.504 42.1635 144.464 42.5835C145.164 42.8935 146.094 42.9235 147.184 42.0735C147.184 42.0735 150.874 43.6335 153.094 41.3135C153.094 41.3135 157.544 42.9935 159.744 41.2135C159.744 41.2135 161.574 42.6635 164.434 41.4635L172.914 39.0635H172.904Z" fill="#C9DD8F"/>
<path d="M163.474 27.5034C163.474 27.5034 152.024 22.5734 144.224 33.7934C143.154 35.3334 142.674 37.2734 143.074 39.1234C143.124 39.3634 143.194 39.6034 143.274 39.8534C143.554 40.6834 144.354 41.2834 145.224 41.2534C145.854 41.2334 146.524 40.9034 146.894 39.8034C146.894 39.8034 150.204 39.6434 150.674 36.9234C150.674 36.9234 154.574 36.5634 155.274 34.2934C155.274 34.2934 157.234 34.7634 158.674 32.7034L163.484 27.5234L163.474 27.5034Z" fill="#78A160"/>
<path d="M282.024 74.0532C282.024 74.0532 338.694 12.3032 342.724 6.33319C346.754 0.353194 354.854 6.33319 354.854 6.33319C354.854 6.33319 363.434 7.68319 370.904 2.09319C373.034 0.483194 375.984 -0.0468062 379.124 0.00319379C388.154 0.163194 396.354 5.34319 400.824 13.1832C404.894 20.3232 411.104 30.1232 417.924 37.0232C429.864 49.1032 455.994 76.3532 451.144 83.4432C446.294 90.5332 415.694 84.5632 392.554 93.5232C392.554 93.5232 386.954 96.8832 370.904 93.5232C354.854 90.1632 344.784 108.453 319.774 89.7932C319.774 89.7932 309.324 86.4332 296.264 87.1832C283.204 87.9332 282.024 74.0632 282.024 74.0632V74.0532Z" fill="#F8F8F8"/>
<path d="M325.474 27.7832C325.474 27.7832 326.244 29.6432 328.654 27.7832C331.064 25.9232 332.374 21.1032 335.444 21.3232C335.444 21.3232 336.324 22.6332 334.024 25.4832C331.724 28.3332 333.364 31.3932 334.464 32.2732C335.564 33.1532 338.074 33.0432 339.284 29.7532C340.494 26.4632 343.664 27.0232 343.664 27.0232C343.664 27.0232 346.624 27.2932 345.744 32.7332C344.864 38.1832 343.554 41.0232 347.714 42.6732C351.874 44.3232 357.244 36.1032 357.244 36.1032C357.244 36.1032 360.424 32.0432 366.334 32.1032C367.974 32.1232 369.574 32.3432 371.034 32.6532C374.214 33.3432 377.154 34.8032 379.784 36.7132C381.804 38.1732 384.994 39.9332 388.344 39.6032C393.924 39.0532 400.934 33.0332 400.934 33.0332C400.934 33.0332 406.194 29.7432 409.364 32.0932" stroke="#D9D9D9" stroke-width="2" stroke-linecap="round" stroke-linejoin="round"/>
<path d="M350.544 6.97325C350.544 6.97325 340.224 7.05325 344.904 12.5133C345.994 13.7833 347.424 14.6933 348.984 15.2733C352.564 16.6133 360.324 19.4033 365.564 20.4133C371.994 21.6533 388.434 18.6333 392.404 14.2333C392.594 14.0233 392.874 13.9333 392.964 13.6633C393.574 11.9133 395.034 5.25325 382.294 3.68325C382.294 3.68325 374.424 2.77325 372.334 3.68325" stroke="#D9D9D9" stroke-width="2" stroke-linecap="round" stroke-linejoin="round"/>
<path d="M364.804 8.48325C364.804 8.48325 356.574 9.22325 361.074 14.8132C365.574 20.4032 376.114 14.8132 376.114 14.8132C376.114 14.8132 385.084 11.2132 376.114 8.48325C373.334 7.63325 364.804 8.48325 364.804 8.48325Z" fill="#4CB2F6"/>
<path d="M640.044 108.323C638.174 98.7734 629.074 95.3734 629.074 95.3734C629.604 94.6334 629.414 89.8534 621.424 89.7634C621.864 88.8734 622.384 87.7334 622.614 86.8934C623.044 85.3134 621.744 85.7434 621.744 85.7434C619.854 85.8234 619.074 89.8634 619.074 89.8634C611.504 90.6034 612.374 95.0034 612.374 95.0034C605.464 96.4434 597.254 110.183 600.324 120.163C603.394 130.143 611.954 131.793 625.664 131.133C639.374 130.473 641.904 117.853 640.034 108.313L640.044 108.323Z" fill="#FEB822"/>
<path d="M602.344 86.6834C605.914 91.0134 610.164 92.9234 613.654 91.1734C617.144 89.4234 616.384 88.4434 616.384 88.4434C616.384 88.4434 619.194 81.3834 608.344 80.4634C608.344 80.4634 599.544 80.4634 596.424 84.4534C596.424 84.4534 598.774 82.3634 602.344 86.6934V86.6834Z" fill="#78A160"/>
<path d="M611.304 108.493C612.878 108.493 614.154 107.217 614.154 105.643C614.154 104.069 612.878 102.793 611.304 102.793C609.73 102.793 608.454 104.069 608.454 105.643C608.454 107.217 609.73 108.493 611.304 108.493Z" fill="#F9F9F9"/>
<path d="M611.774 113.073C612.425 113.073 612.954 112.545 612.954 111.893C612.954 111.242 612.425 110.713 611.774 110.713C611.122 110.713 610.594 111.242 610.594 111.893C610.594 112.545 611.122 113.073 611.774 113.073Z" fill="#F9F9F9"/>
<path d="M607.184 114.254C607.836 114.254 608.364 113.725 608.364 113.074C608.364 112.422 607.836 111.894 607.184 111.894C606.532 111.894 606.004 112.422 606.004 113.074C606.004 113.725 606.532 114.254 607.184 114.254Z" fill="#F9F9F9"/>
<path d="M133.814 33.6532C133.814 33.6532 136.174 17.7832 119.254 17.4232C102.334 17.0532 105.874 31.0732 105.874 31.0732C105.874 31.0732 102.114 41.7732 105.564 46.2032C105.564 46.2032 96.0339 49.5232 94.8539 65.0232C93.6739 80.5232 98.3939 80.8932 98.3939 80.8932L98.0039 93.4332C98.0039 93.4332 95.8939 101.923 108.554 104.873C121.214 107.823 128.914 104.873 133.914 100.813C138.914 96.7532 136.164 90.1132 136.164 90.1132C136.164 90.1132 139.704 88.6332 139.314 80.5232C138.924 72.4032 138.134 54.6932 134.594 54.3232C134.594 54.3232 140.884 42.5132 133.804 33.6632L133.814 33.6532Z" fill="#C6C9C6"/>
<path d="M131.604 34.3532C131.314 34.3532 131.014 34.2232 130.824 33.9732C130.594 33.6832 125.064 27.0332 112.434 31.6532C111.914 31.8432 111.344 31.5732 111.154 31.0532C110.964 30.5332 111.234 29.9632 111.754 29.7732C125.814 24.6432 132.134 32.4032 132.394 32.7332C132.734 33.1632 132.664 33.7932 132.224 34.1332C132.044 34.2732 131.824 34.3432 131.604 34.3432V34.3532Z" fill="white"/>
<path d="M129.244 45.4933C126.974 45.4933 125.124 43.7333 125.124 41.5633C125.124 39.3933 126.974 37.6333 129.244 37.6333C131.514 37.6333 133.364 39.3933 133.364 41.5633C133.364 43.7333 131.514 45.4933 129.244 45.4933ZM129.244 39.6433C128.074 39.6433 127.124 40.5033 127.124 41.5733C127.124 42.6433 128.074 43.5033 129.244 43.5033C130.414 43.5033 131.364 42.6433 131.364 41.5733C131.364 40.5033 130.414 39.6433 129.244 39.6433Z" fill="white"/>
<path d="M117.014 44.3834C114.744 44.3834 112.894 42.6234 112.894 40.4534C112.894 38.2834 114.744 36.5234 117.014 36.5234C119.284 36.5234 121.134 38.2834 121.134 40.4534C121.134 42.6234 119.284 44.3834 117.014 44.3834ZM117.014 38.5334C115.844 38.5334 114.894 39.3934 114.894 40.4634C114.894 41.5334 115.844 42.3934 117.014 42.3934C118.184 42.3934 119.134 41.5334 119.134 40.4634C119.134 39.3934 118.184 38.5334 117.014 38.5334Z" fill="white"/>
<path d="M124.124 50.5731C123.204 50.5731 122.354 50.3431 121.594 49.8831C119.054 48.3431 118.514 44.7831 118.494 44.6331C118.414 44.0831 118.794 43.5831 119.344 43.5031C119.894 43.4231 120.394 43.8031 120.474 44.3531C120.474 44.3831 120.904 47.1331 122.634 48.1731C123.474 48.6831 124.504 48.7031 125.784 48.2531C126.544 47.9831 126.694 47.5831 126.744 47.4431C127.044 46.6331 126.484 45.3731 126.274 44.9931C125.994 44.5131 126.154 43.9031 126.634 43.6231C127.114 43.3431 127.724 43.5031 128.004 43.9831C128.134 44.2131 129.304 46.2831 128.634 48.1231C128.394 48.7731 127.834 49.6531 126.464 50.1331C125.644 50.4231 124.864 50.5731 124.124 50.5731Z" fill="white"/>
<path d="M125.374 54.5534C125.044 54.5534 124.694 54.5434 124.334 54.5134C116.354 53.9534 116.024 49.7334 116.014 49.5534C115.984 49.0034 116.404 48.5334 116.954 48.4934C117.484 48.4734 117.974 48.8834 118.014 49.4334C118.014 49.4334 118.394 52.0934 124.484 52.5134C126.724 52.6734 128.394 52.2634 129.444 51.3034C130.574 50.2734 130.604 48.9334 130.604 48.8734C130.604 48.3234 131.094 47.8634 131.614 47.8834C132.164 47.8834 132.604 48.3334 132.604 48.8834C132.604 48.9734 132.584 51.1134 130.824 52.7434C129.544 53.9434 127.714 54.5434 125.374 54.5434V54.5534Z" fill="white"/>
<path d="M123.164 60.6433C122.594 60.6433 121.984 60.5933 121.354 60.4833C116.314 59.6233 111.514 56.2033 111.314 56.0533C110.864 55.7333 110.764 55.1033 111.084 54.6533C111.404 54.2033 112.034 54.1033 112.484 54.4233C112.534 54.4533 117.124 57.7233 121.694 58.5033C125.974 59.2333 128.484 56.5533 128.504 56.5333C128.874 56.1233 129.504 56.0933 129.914 56.4733C130.324 56.8433 130.354 57.4833 129.974 57.8833C129.854 58.0133 127.404 60.6333 123.164 60.6333V60.6433Z" fill="white"/>
<path d="M133.044 92.4832C132.034 92.4832 131.194 92.1832 130.544 91.5832C129.504 90.6332 129.274 89.2132 129.254 88.3232C127.854 87.7332 127.274 86.8131 127.044 86.1031C126.424 84.2431 127.534 82.1832 128.134 81.2532C127.784 80.1632 127.854 79.2232 128.354 78.4432C129.214 77.1032 130.994 76.8932 131.484 76.8632C132.324 76.6732 132.894 76.2632 133.234 75.6132C134.274 73.6132 133.024 69.8032 132.454 68.5032C132.234 67.9932 132.454 67.4032 132.974 67.1832C133.474 66.9632 134.074 67.1832 134.294 67.6932C134.544 68.2632 136.674 73.3131 135.014 76.5231C134.384 77.7331 133.284 78.5332 131.814 78.8332L131.644 78.8532C131.254 78.8632 130.334 79.0532 130.044 79.5132C129.804 79.8932 129.984 80.5232 130.184 80.9832L130.414 81.5231L130.054 81.9832C129.644 82.5232 128.564 84.3131 128.944 85.4531C129.014 85.6531 129.214 86.2632 130.554 86.6432L131.374 86.8732L131.274 87.7232C131.224 88.1732 131.244 89.4931 131.904 90.0931C132.324 90.4731 133.004 90.5632 133.944 90.3632C134.484 90.2532 135.014 90.5931 135.134 91.1331C135.244 91.6731 134.904 92.2032 134.364 92.3232C133.904 92.4232 133.464 92.4732 133.064 92.4732L133.044 92.4832Z" fill="white"/>
<path d="M103.024 85.3031C102.464 85.3031 101.874 85.2231 101.254 85.0631C100.714 84.9231 100.394 84.3831 100.534 83.8531C100.674 83.3131 101.214 82.9931 101.744 83.1331C104.654 83.8731 105.294 82.0531 105.394 81.6731L105.554 81.0831L106.154 80.9431C107.574 80.6431 108.514 80.0531 108.954 79.1931C109.714 77.6931 108.834 75.7231 108.824 75.7031L108.654 75.3231L108.804 74.9231C109.144 74.0431 109.154 73.3531 108.834 72.8031C108.224 71.7831 106.524 71.3731 105.924 71.3031L105.484 71.2531L105.224 70.8931C101.764 66.0331 105.594 60.1531 105.764 59.9031C106.064 59.4431 106.684 59.3231 107.144 59.6231C107.604 59.9231 107.734 60.5431 107.424 61.0131C107.394 61.0631 104.384 65.7131 106.634 69.4031C107.574 69.5931 109.564 70.1631 110.544 71.7831C111.144 72.7831 111.234 73.9631 110.804 75.2831C111.114 76.1431 111.684 78.2331 110.754 80.1031C110.104 81.4131 108.884 82.3131 107.124 82.7931C106.874 83.3431 106.374 84.1331 105.444 84.7031C104.744 85.1231 103.934 85.3331 103.034 85.3331L103.024 85.3031Z" fill="white"/>
</svg>
