<svg width="214" height="100" viewBox="0 0 214 100" fill="none" xmlns="http://www.w3.org/2000/svg">
<g clip-path="url(#clip0_456_2162)">
<path d="M194.994 61.9706H177.574C177.574 48.1673 166.39 36.9752 152.591 36.9752C146.646 36.9752 141.19 39.0561 136.899 42.5253C137.171 40.7141 137.312 38.8599 137.312 36.9752C137.319 16.5553 120.772 0 100.362 0C83.7358 0 69.6762 10.9838 65.0325 26.0956C61.2833 24.5296 57.1696 23.6623 52.8537 23.6623C35.3818 23.6623 21.2211 37.8333 21.2211 55.3111C21.2211 55.3203 21.2211 55.3295 21.2211 55.3387C9.4037 55.9209 0 65.6911 0 77.6555C0 89.62 9.99794 100 22.333 100C23.1478 100 23.9503 99.954 24.7406 99.8682C25.4604 99.951 26.1895 100 26.9307 100H194.994C205.445 100 214 91.4435 214 80.9838C214 70.5271 205.448 61.9675 194.994 61.9675V61.9706ZM127.593 61.9706C127.593 61.9706 127.605 61.9553 127.615 61.9491C127.615 61.9553 127.615 61.9645 127.615 61.9706H127.596H127.593Z" fill="white"/>
</g>
<defs>
<clipPath id="clip0_456_2162">
<rect width="214" height="100" fill="white"/>
</clipPath>
</defs>
</svg>
