<svg width="162" height="94" viewBox="0 0 162 94" fill="none" xmlns="http://www.w3.org/2000/svg">
<g clip-path="url(#clip0_456_2160)">
<path d="M162 57.5374C162 37.4104 145.765 21.0953 125.737 21.0953C125.645 21.0953 125.553 21.0953 125.461 21.0988C123.677 9.15671 113.428 0 101.047 0C87.5325 0 76.5616 10.9155 76.3675 24.4487C74.808 24.1544 73.2008 23.9936 71.5528 23.9936C57.2348 23.9936 45.6305 35.6585 45.6305 50.0437C45.6305 52.6477 46.0153 55.1627 46.7235 57.534H18.1419C8.1618 57.534 0 65.7394 0 75.7653C0 85.7946 8.16521 93.9966 18.1419 93.9966H124.967C125.291 93.9966 125.611 93.9863 125.931 93.9692C145.867 93.8631 162 77.5925 162 57.5306V57.5374Z" fill="white"/>
</g>
<defs>
<clipPath id="clip0_456_2160">
<rect width="162" height="94" fill="white"/>
</clipPath>
</defs>
</svg>
