<svg width="693" height="209" viewBox="0 0 693 209" fill="none" xmlns="http://www.w3.org/2000/svg">
<g clip-path="url(#clip0_40_1680)">
<path d="M37.9 205.82C40.8 208.66 45.0599 209.57 48.8699 208.18C70.5799 200.23 142.26 174.17 150.33 173.77C159.86 173.3 209.4 196.16 217.02 195.21C221.68 194.63 231.67 189.06 238.74 184.82C243.8 181.79 249.93 181.15 255.49 183.11L292.38 196.09C296.05 197.38 299.96 197.86 303.84 197.48C316.64 196.24 346.88 193.51 358.02 194.25C372.31 195.2 381.84 204.99 388.51 203.43C393.8 202.19 444.61 186.96 465.43 180.7C471.25 178.95 477.42 178.7 483.37 179.99C494.75 182.45 513.41 186.6 519.04 188.53C522.36 189.66 525.61 191.26 528.32 192.77C533.19 195.48 538.93 196.2 544.35 194.9C568.78 189.01 634.08 173.37 637.18 173.76C639.91 174.1 673.04 178.61 691.55 181.14C691.61 180.95 691.66 180.75 691.73 180.56C692.46 178.25 692.82 175.91 692.45 173.48C692.2 171.83 691.08 169.39 690.07 168.06C683.52 159.38 676.65 150.93 670.55 141.92C658.21 123.69 639.44 121.17 636.42 118.41C634.03 116.22 632.34 113.49 631.19 110.43C629.94 107.11 629 103.64 626.88 100.71C625.83 99.2602 624.91 97.6402 622.9 97.1702C622.33 97.0402 617.18 93.4202 616.2 93.2502C613.17 92.7302 610.2 91.9802 607.06 91.9102C604.68 91.8602 602.61 90.4202 601.21 88.4602C600.12 86.9302 598.64 85.8102 597.46 84.3702C594.66 80.9302 591.61 77.7002 588.85 74.2302C586.11 70.7702 582.48 68.9602 578.34 68.0502C574.11 67.1202 555.46 64.1302 551.63 63.6702C543.68 62.7302 535.69 62.7402 527.71 62.6302C524.53 62.5902 521.34 62.8002 518.19 63.2302C514.2 63.7702 510.17 64.1502 506.14 63.8902C504.77 63.8002 503.38 63.6302 502.07 63.1602C501.41 62.9202 500.85 62.9402 500.25 63.2602C493.76 66.7702 486.77 63.1002 484.57 56.8602C483.59 54.0902 481.15 52.7602 478.43 51.9202C475.14 50.9002 471.98 51.8102 468.81 52.4902C465.58 53.1802 462.41 54.2202 459.15 54.7102C454.41 55.4302 449.87 56.8602 445.25 58.0202C441.83 58.8802 438.42 59.5902 434.86 59.6302C432.62 59.6602 430.62 58.8402 428.6 58.1602C421.76 55.8602 414.96 53.4302 408.26 50.7302C404.55 49.2302 400.68 48.2502 396.65 47.7902C392.67 47.3302 388.83 47.7202 385.03 48.8102C383.66 49.2002 382.37 49.7902 381.08 50.3902C378.92 51.4002 376.86 52.6702 374.49 53.1102C370.63 53.8302 366.74 53.8002 363.17 52.0902C360.59 50.8502 357.78 50.5802 355.17 49.5702C353.28 48.8402 351.44 48.0102 349.75 46.9002C348.16 45.8602 346.28 45.6702 344.54 45.0402C343.61 44.7002 342.64 44.4702 341.72 44.1202C340.42 43.6302 339.19 43.2802 337.91 44.2802C337.38 44.7002 330.94 44.9502 328.45 45.4502C327.08 45.7302 325.66 45.9302 324.4 46.6802C323.86 47.0002 301.36 51.3502 292.55 50.5802C279.8 49.4602 267.24 47.0402 254.68 44.6302C250.79 43.8802 246.86 43.4702 242.89 43.4702C238.96 43.4702 235.21 44.5502 231.39 45.2702C227.76 45.9602 224.09 46.3402 220.42 46.6902C211.35 47.5502 202.26 47.5602 193.16 47.5602C190.3 47.5602 187.44 47.4702 184.58 47.4402C183.01 47.4302 180.49 47.8302 178.99 48.2702C173.71 49.8402 168.38 51.2602 163.15 52.9702C158.81 54.3902 154.57 56.1202 150.69 58.5902C149.78 59.1702 148.79 59.7102 147.77 59.8502C145.34 60.1802 138.35 66.6602 137.86 67.7502C135.83 72.2402 124.79 83.5902 123.89 84.5202C120.08 88.4702 115.19 89.7002 110.03 90.6502C100.95 92.3202 91.9 94.1502 82.81 95.7802C77.57 96.7202 72.28 97.3402 67.08 98.4502C64.21 99.0602 56.8799 105.07 55.6899 106.6C52.4599 110.75 49.3399 114.99 46.0299 119.07C43.0499 122.75 39.51 125.71 34.68 126.66C33.11 126.97 31.51 127.05 29.94 127.37C23.19 128.75 18.86 132.86 16.93 139.39C15.62 143.84 14.13 148.22 12.57 152.58C12.35 153.18 4.40995 165.98 0.849951 166.69C0.499951 166.76 0.199951 166.95 -0.0500488 167.2C13.61 181.9 29.9399 198.05 37.8499 205.79L37.9 205.82Z" fill="#D9D9D9"/>
<path d="M467.59 67.3198H464.94V108.5H467.59V67.3198Z" fill="#ABB6B8"/>
<path d="M491.17 69.3497C489.1 68.6397 479.24 65.5497 466.12 66.3897L466.03 68.0397L465.94 69.6897C478.87 72.0197 489.02 70.0697 491.16 69.5997C491.28 69.5697 491.29 69.3997 491.17 69.3597V69.3497Z" fill="#F4FDFE"/>
<path d="M452.33 90.3599C453.93 88.8599 461.28 81.5999 466.69 69.6199L465.28 68.7599L463.87 67.8999C455.75 78.2399 452.71 88.1099 452.13 90.2199C452.1 90.3399 452.24 90.4299 452.34 90.3399L452.33 90.3599Z" fill="#F4FDFE"/>
<path d="M454.96 44.2999C456.38 45.9699 462.86 54.0199 466.87 66.5299L465.37 67.2199L463.87 67.9099C456.98 56.7199 455.09 46.5599 454.74 44.3999C454.72 44.2699 454.88 44.1999 454.96 44.2999Z" fill="#F4FDFE"/>
<path d="M466.03 70.4698C467.378 70.4698 468.47 69.3774 468.47 68.0298C468.47 66.6823 467.378 65.5898 466.03 65.5898C464.683 65.5898 463.59 66.6823 463.59 68.0298C463.59 69.3774 464.683 70.4698 466.03 70.4698Z" fill="#E8F3F7"/>
<path d="M325.123 109.736H328.339V107.168H318.499V109.736H322.051V110.816C322.051 114.608 320.899 118.568 317.683 120.608L319.555 122.936C321.547 121.688 322.843 119.528 323.611 117.008C324.331 119.336 325.579 121.256 327.547 122.408L329.395 120.104C326.203 118.232 325.123 114.512 325.123 110.816V109.736ZM329.611 112.496H326.803V115.064H329.611V126.056H332.563V105.32H329.611V112.496ZM334.075 104.936V127.04H337.075V104.936H334.075ZM341.105 115.904C344.969 115.376 347.681 113.72 349.001 111.464C350.321 113.72 353.033 115.376 356.897 115.904L358.025 113.432C353.537 112.88 351.209 110.72 350.897 108.608H357.161V106.088H340.769V108.608H347.129C346.817 110.72 344.465 112.88 339.953 113.432L341.105 115.904ZM358.985 117.176H339.017V119.696H347.345V127.112H350.513V119.696H358.985V117.176ZM368.439 106.664H365.271V109.88C365.271 114.176 363.447 118.448 359.583 120.104L361.479 122.72C364.119 121.472 365.919 119.096 366.903 116.144C367.887 118.856 369.591 121.04 372.135 122.192L373.935 119.624C370.191 118.016 368.439 113.984 368.439 109.88V106.664ZM375.015 104.936V127.112H378.183V104.936H375.015Z" fill="black"/>
<path d="M254.52 22.0503H247.52V69.5503H254.52V22.0503Z" fill="white"/>
<path d="M217.58 49.6201C217.58 49.6201 216.98 25.7401 243.6 16.8501C247.25 15.6301 251.2 15.7101 254.33 17.4001C254.74 17.6201 255.14 17.8701 255.53 18.1501C256.85 19.1001 257.37 20.8901 256.67 22.5001C256.16 23.6701 255.05 24.7501 252.73 24.8801C252.73 24.8801 249.96 30.9701 244.57 30.4801C244.57 30.4801 240.99 37.5801 236.25 37.7401C236.25 37.7401 235.66 41.6301 230.76 43.2801L217.57 49.6401L217.58 49.6201Z" fill="#78A160"/>
<path d="M276.61 42.3201C276.61 42.3201 277.08 23.6201 256.24 16.6601C253.38 15.7001 250.29 15.7701 247.84 17.0901C247.52 17.2601 247.21 17.4601 246.9 17.6801C245.86 18.4201 245.46 19.8301 246.01 21.0801C246.41 21.9901 247.28 22.8401 249.09 22.9401C249.09 22.9401 251.26 27.7101 255.48 27.3301C255.48 27.3301 258.28 32.8901 261.99 33.0201C261.99 33.0201 262.46 36.0701 266.29 37.3501L276.62 42.3301L276.61 42.3201Z" fill="#78A160"/>
<path d="M214.2 25.1101C214.2 25.1101 225.13 7.28006 248.92 13.4301C252.18 14.2701 255.04 16.2101 256.54 18.9401C256.73 19.2901 256.91 19.6701 257.07 20.0601C257.59 21.3901 257.12 22.9501 255.84 23.8001C254.91 24.4101 253.58 24.6901 251.82 23.6701C251.82 23.6701 246.88 26.8301 243.16 23.9001C243.16 23.9001 237.15 27.4101 233.59 25.2701C233.59 25.2701 231.3 27.8501 226.92 26.7201L214.2 25.1101Z" fill="#C9DD8F"/>
<path d="M280.38 15.9601C280.38 15.9601 269.32 3.39011 250.87 11.1701C248.34 12.2401 246.27 14.1101 245.4 16.4301C245.29 16.7301 245.19 17.0501 245.11 17.3701C244.86 18.4701 245.43 19.6401 246.57 20.1401C247.4 20.5001 248.51 20.5501 249.8 19.5401C249.8 19.5401 254.18 21.3901 256.82 18.6401C256.82 18.6401 262.11 20.6301 264.72 18.5201C264.72 18.5201 266.89 20.2501 270.29 18.8201L280.36 15.9701L280.38 15.9601Z" fill="#C9DD8F"/>
<path d="M221.29 1.27024C221.29 1.27024 236.51 -4.91976 248.7 10.0502C250.37 12.1002 251.28 14.6602 250.95 17.0802C250.91 17.3902 250.85 17.7102 250.76 18.0302C250.47 19.1102 249.44 19.8802 248.24 19.8202C247.36 19.7702 246.4 19.3302 245.75 17.8602C245.75 17.8602 241.16 17.5602 240.17 13.9702C240.17 13.9702 234.73 13.3902 233.48 10.3802C233.48 10.3802 230.83 10.9402 228.59 8.19024L221.29 1.25024V1.27024Z" fill="#78A160"/>
<path d="M606.89 80.6304H601V149.46H606.89V80.6304Z" fill="white"/>
<path d="M575.8 103.83C575.8 103.83 575.3 83.7303 597.7 76.2503C600.77 75.2203 604.09 75.2903 606.73 76.7103C607.07 76.8903 607.41 77.1003 607.74 77.3403C608.85 78.1403 609.29 79.6503 608.7 81.0003C608.27 81.9803 607.34 82.9003 605.39 83.0003C605.39 83.0003 603.06 88.1303 598.53 87.7103C598.53 87.7103 595.52 93.6803 591.53 93.8203C591.53 93.8203 591.03 97.1003 586.91 98.4803L575.81 103.83H575.8Z" fill="#78A160"/>
<path d="M625.49 97.6904C625.49 97.6904 625.88 81.9504 608.34 76.0904C605.93 75.2904 603.33 75.3404 601.27 76.4504C601 76.5904 600.74 76.7604 600.48 76.9404C599.61 77.5704 599.27 78.7504 599.73 79.8104C600.07 80.5804 600.8 81.2904 602.32 81.3804C602.32 81.3804 604.15 85.4004 607.7 85.0704C607.7 85.0704 610.06 89.7504 613.18 89.8604C613.18 89.8604 613.57 92.4304 616.8 93.5104L625.49 97.7004V97.6904Z" fill="#78A160"/>
<path d="M572.96 83.2003C572.96 83.2003 582.16 68.2003 602.18 73.3703C604.93 74.0803 607.33 75.7103 608.59 78.0103C608.75 78.3103 608.9 78.6203 609.03 78.9503C609.47 80.0703 609.07 81.3803 607.99 82.0903C607.21 82.6103 606.09 82.8303 604.6 81.9803C604.6 81.9803 600.44 84.6403 597.31 82.1703C597.31 82.1703 592.25 85.1203 589.26 83.3303C589.26 83.3303 587.33 85.5003 583.65 84.5503L572.95 83.2003H572.96Z" fill="#C9DD8F"/>
<path d="M628.66 75.5102C628.66 75.5102 619.35 64.9302 603.83 71.4802C601.7 72.3802 599.96 73.9602 599.23 75.9102C599.13 76.1602 599.05 76.4302 598.99 76.7002C598.78 77.6302 599.26 78.6102 600.22 79.0302C600.92 79.3402 601.85 79.3702 602.94 78.5202C602.94 78.5202 606.63 80.0802 608.85 77.7602C608.85 77.7602 613.3 79.4402 615.5 77.6602C615.5 77.6602 617.33 79.1102 620.19 77.9102L628.67 75.5102H628.66Z" fill="#C9DD8F"/>
<path d="M578.93 63.1402C578.93 63.1402 591.74 57.9302 602 70.5302C603.41 72.2602 604.17 74.4102 603.9 76.4502C603.86 76.7102 603.81 76.9802 603.74 77.2502C603.5 78.1602 602.63 78.8102 601.62 78.7602C600.88 78.7202 600.07 78.3502 599.53 77.1102C599.53 77.1102 595.66 76.8502 594.83 73.8402C594.83 73.8402 590.26 73.3502 589.2 70.8202C589.2 70.8202 586.97 71.2902 585.08 68.9802L578.94 63.1402H578.93Z" fill="#78A160"/>
<path d="M587.96 117.99H582.07V152.86H587.96V117.99Z" fill="white"/>
<path d="M556.87 141.2C556.87 141.2 556.37 121.1 578.77 113.62C581.84 112.59 585.16 112.66 587.8 114.08C588.14 114.26 588.48 114.47 588.81 114.71C589.92 115.51 590.36 117.02 589.77 118.37C589.34 119.35 588.41 120.27 586.46 120.37C586.46 120.37 584.13 125.5 579.6 125.08C579.6 125.08 576.59 131.05 572.6 131.19C572.6 131.19 572.1 134.47 567.98 135.85L556.88 141.2H556.87Z" fill="#78A160"/>
<path d="M606.56 135.05C606.56 135.05 606.95 119.31 589.41 113.45C587 112.65 584.4 112.7 582.34 113.81C582.07 113.95 581.81 114.12 581.55 114.3C580.68 114.93 580.34 116.11 580.8 117.17C581.14 117.94 581.87 118.65 583.39 118.74C583.39 118.74 585.22 122.76 588.77 122.43C588.77 122.43 591.13 127.11 594.25 127.22C594.25 127.22 594.64 129.79 597.87 130.87L606.56 135.06V135.05Z" fill="#78A160"/>
<path d="M554.03 120.56C554.03 120.56 563.23 105.56 583.25 110.73C586 111.44 588.4 113.07 589.66 115.37C589.82 115.67 589.97 115.98 590.1 116.31C590.54 117.43 590.14 118.74 589.06 119.45C588.28 119.97 587.16 120.19 585.67 119.34C585.67 119.34 581.51 122 578.38 119.53C578.38 119.53 573.32 122.48 570.33 120.69C570.33 120.69 568.4 122.86 564.72 121.91L554.02 120.56H554.03Z" fill="#C9DD8F"/>
<path d="M609.73 112.87C609.73 112.87 600.42 102.29 584.9 108.84C582.77 109.74 581.03 111.32 580.3 113.27C580.2 113.52 580.12 113.79 580.06 114.06C579.85 114.99 580.33 115.97 581.29 116.39C581.99 116.7 582.92 116.73 584.01 115.88C584.01 115.88 587.7 117.44 589.92 115.12C589.92 115.12 594.37 116.8 596.57 115.02C596.57 115.02 598.4 116.47 601.26 115.27L609.74 112.87H609.73Z" fill="#C9DD8F"/>
<path d="M560 100.5C560 100.5 572.81 95.2901 583.07 107.89C584.48 109.62 585.24 111.77 584.97 113.81C584.93 114.07 584.88 114.34 584.81 114.61C584.57 115.52 583.7 116.17 582.69 116.12C581.95 116.08 581.14 115.71 580.6 114.47C580.6 114.47 576.73 114.21 575.9 111.2C575.9 111.2 571.33 110.71 570.27 108.18C570.27 108.18 568.04 108.65 566.15 106.34L560.01 100.5H560Z" fill="#78A160"/>
<path d="M277.42 113.42C276.04 106.38 269.33 103.87 269.33 103.87C269.72 103.33 269.58 99.7997 263.68 99.7297C264.01 99.0697 264.39 98.2297 264.56 97.6097C264.88 96.4397 263.92 96.7597 263.92 96.7597C262.53 96.8197 261.95 99.7997 261.95 99.7997C256.37 100.35 257.01 103.59 257.01 103.59C251.91 104.65 245.85 114.78 248.12 122.15C250.39 129.52 256.7 130.73 266.82 130.24C276.94 129.75 278.8 120.45 277.42 113.4V113.42Z" fill="#FEB822"/>
<path d="M251.07 92.9199C251.72 97.0099 253.7 99.8099 256.58 100.01C259.46 100.2 259.34 99.2999 259.34 99.2999C259.34 99.2999 263.77 95.8599 257.22 91.2199C257.22 91.2199 251.62 87.9299 248.15 89.2899C248.15 89.2899 250.43 88.8399 251.07 92.9299V92.9199Z" fill="#78A160"/>
<path d="M263.39 91.2799C261.87 92.2899 261.11 93.6099 261.56 94.7999C262.01 95.9899 262.36 95.7799 262.36 95.7799C262.36 95.7799 264.56 96.9299 265.21 93.4399C265.21 93.4399 265.5 90.5899 264.32 89.4399C264.32 89.4399 264.92 90.2699 263.4 91.2799H263.39Z" fill="#78A160"/>
<path d="M255.49 110.66C255.971 110.66 256.36 110.27 256.36 109.79C256.36 109.309 255.971 108.92 255.49 108.92C255.01 108.92 254.62 109.309 254.62 109.79C254.62 110.27 255.01 110.66 255.49 110.66Z" fill="#F9F9F9"/>
<path d="M253.35 112.8C253.83 112.8 254.22 112.411 254.22 111.93C254.22 111.45 253.83 111.06 253.35 111.06C252.87 111.06 252.48 111.45 252.48 111.93C252.48 112.411 252.87 112.8 253.35 112.8Z" fill="#F9F9F9"/>
<path d="M267.02 103.65C267.5 103.65 267.89 103.261 267.89 102.78C267.89 102.3 267.5 101.91 267.02 101.91C266.539 101.91 266.15 102.3 266.15 102.78C266.15 103.261 266.539 103.65 267.02 103.65Z" fill="#F9F9F9"/>
<path d="M189.01 96.7498C139.33 95.9098 135.42 116.33 135.42 116.33H148.52V144.75H230.69V116.33H244.18C244.18 116.33 240.16 95.9098 189 96.7498H189.01Z" fill="white"/>
<path d="M148.52 135.79C151.696 135.79 154.27 133.216 154.27 130.04C154.27 126.864 151.696 124.29 148.52 124.29C145.344 124.29 142.77 126.864 142.77 130.04C142.77 133.216 145.344 135.79 148.52 135.79Z" fill="#6B6B6B"/>
<path d="M146.85 147.3C150.025 147.3 152.6 144.725 152.6 141.55C152.6 138.374 150.025 135.8 146.85 135.8C143.674 135.8 141.1 138.374 141.1 141.55C141.1 144.725 143.674 147.3 146.85 147.3Z" fill="#6B6B6B"/>
<path d="M235.41 130.04H146.85V147.3H235.41V130.04Z" fill="#6B6B6B"/>
<path d="M233.08 136.4C235.808 136.4 238.02 134.188 238.02 131.46C238.02 128.732 235.808 126.52 233.08 126.52C230.352 126.52 228.14 128.732 228.14 131.46C228.14 134.188 230.352 136.4 233.08 136.4Z" fill="#6B6B6B"/>
<path d="M157.04 136.78C160.32 136.78 162.98 134.12 162.98 130.84C162.98 127.559 160.32 124.9 157.04 124.9C153.759 124.9 151.1 127.559 151.1 130.84C151.1 134.12 153.759 136.78 157.04 136.78Z" fill="#6B6B6B"/>
<path d="M224.47 136.78C227.751 136.78 230.41 134.12 230.41 130.84C230.41 127.559 227.751 124.9 224.47 124.9C221.189 124.9 218.53 127.559 218.53 130.84C218.53 134.12 221.189 136.78 224.47 136.78Z" fill="#6B6B6B"/>
<path d="M193.73 135.98C197.011 135.98 199.67 133.32 199.67 130.04C199.67 126.759 197.011 124.1 193.73 124.1C190.449 124.1 187.79 126.759 187.79 130.04C187.79 133.32 190.449 135.98 193.73 135.98Z" fill="#6B6B6B"/>
<path d="M193.73 135.98C197.011 135.98 199.67 133.32 199.67 130.04C199.67 126.759 197.011 124.1 193.73 124.1C190.449 124.1 187.79 126.759 187.79 130.04C187.79 133.32 190.449 135.98 193.73 135.98Z" stroke="white" stroke-miterlimit="10"/>
<path d="M165.74 137.4C169.02 137.4 171.68 134.741 171.68 131.46C171.68 128.179 169.02 125.52 165.74 125.52C162.459 125.52 159.8 128.179 159.8 131.46C159.8 134.741 162.459 137.4 165.74 137.4Z" fill="#6B6B6B"/>
<path d="M183.52 135.98C186.8 135.98 189.46 133.32 189.46 130.04C189.46 126.759 186.8 124.1 183.52 124.1C180.239 124.1 177.58 126.759 177.58 130.04C177.58 133.32 180.239 135.98 183.52 135.98Z" fill="#6B6B6B"/>
<path d="M175.39 137.4C178.671 137.4 181.33 134.741 181.33 131.46C181.33 128.179 178.671 125.52 175.39 125.52C172.109 125.52 169.45 128.179 169.45 131.46C169.45 134.741 172.109 137.4 175.39 137.4Z" fill="#6B6B6B"/>
<path d="M215.59 137.4C218.87 137.4 221.53 134.741 221.53 131.46C221.53 128.179 218.87 125.52 215.59 125.52C212.309 125.52 209.65 128.179 209.65 131.46C209.65 134.741 212.309 137.4 215.59 137.4Z" fill="#6B6B6B"/>
<path d="M238.02 147.49C241.3 147.49 243.96 144.83 243.96 141.55C243.96 138.269 241.3 135.61 238.02 135.61C234.739 135.61 232.08 138.269 232.08 141.55C232.08 144.83 234.739 147.49 238.02 147.49Z" fill="#6B6B6B"/>
<path d="M204.73 137.4C208.011 137.4 210.67 134.741 210.67 131.46C210.67 128.179 208.011 125.52 204.73 125.52C201.449 125.52 198.79 128.179 198.79 131.46C198.79 134.741 201.449 137.4 204.73 137.4Z" fill="#6B6B6B"/>
<path d="M234.08 144.61C237.36 144.61 240.02 141.951 240.02 138.67C240.02 135.389 237.36 132.73 234.08 132.73C230.799 132.73 228.14 135.389 228.14 138.67C228.14 141.951 230.799 144.61 234.08 144.61Z" fill="#6B6B6B"/>
<path d="M157.04 136.78C160.32 136.78 162.98 134.12 162.98 130.84C162.98 127.559 160.32 124.9 157.04 124.9C153.759 124.9 151.1 127.559 151.1 130.84C151.1 134.12 153.759 136.78 157.04 136.78Z" stroke="white" stroke-miterlimit="10"/>
<path d="M224.47 136.78C227.751 136.78 230.41 134.12 230.41 130.84C230.41 127.559 227.751 124.9 224.47 124.9C221.189 124.9 218.53 127.559 218.53 130.84C218.53 134.12 221.189 136.78 224.47 136.78Z" stroke="white" stroke-miterlimit="10"/>
<path d="M204.73 137.4C208.011 137.4 210.67 134.741 210.67 131.46C210.67 128.179 208.011 125.52 204.73 125.52C201.449 125.52 198.79 128.179 198.79 131.46C198.79 134.741 201.449 137.4 204.73 137.4Z" stroke="white" stroke-miterlimit="10"/>
<path d="M234.08 144.61C237.36 144.61 240.02 141.951 240.02 138.67C240.02 135.389 237.36 132.73 234.08 132.73C230.799 132.73 228.14 135.389 228.14 138.67C228.14 141.951 230.799 144.61 234.08 144.61Z" stroke="white" stroke-miterlimit="10"/>
<path d="M143.88 140.52C146.448 140.52 148.53 138.438 148.53 135.87C148.53 133.302 146.448 131.22 143.88 131.22C141.312 131.22 139.23 133.302 139.23 135.87C139.23 138.438 141.312 140.52 143.88 140.52Z" stroke="white" stroke-miterlimit="10"/>
<path d="M177.58 100.21C177.58 100.21 156.57 101.22 146.85 112.85" stroke="#B5B5B5" stroke-miterlimit="10"/>
<path d="M185.07 101.38V112.85" stroke="#B5B5B5" stroke-miterlimit="10"/>
<path d="M165.74 112.85C165.74 112.85 166.74 108.73 181.33 101.38" stroke="#B5B5B5" stroke-miterlimit="10"/>
<path d="M202.65 100.21C202.65 100.21 221.63 101.22 230.41 112.85" stroke="#B5B5B5" stroke-miterlimit="10"/>
<path d="M195.88 101.38V112.85" stroke="#B5B5B5" stroke-miterlimit="10"/>
<path d="M213.35 112.85C213.35 112.85 212.45 108.73 199.26 101.38" stroke="#B5B5B5" stroke-miterlimit="10"/>
<path d="M157.04 116.33H221.54" stroke="#B5B5B5" stroke-miterlimit="10"/>
<path d="M267.86 30.8499C267.86 30.8499 266.49 21.0299 276.31 20.7999C286.13 20.5699 284.08 29.2499 284.08 29.2499C284.08 29.2499 286.27 35.8799 284.26 38.6199C284.26 38.6199 289.79 40.6799 290.48 50.2699C291.17 59.8599 288.42 60.0899 288.42 60.0899L288.65 67.8599C288.65 67.8599 289.88 73.1099 282.52 74.9399C275.16 76.7699 270.7 74.9399 267.79 72.4299C264.88 69.9199 266.48 65.7999 266.48 65.7999C266.48 65.7999 264.42 64.8899 264.65 59.8599C264.88 54.8299 265.34 43.8699 267.39 43.6399C267.39 43.6399 263.73 36.3299 267.85 30.8499H267.86Z" fill="#8E8E93"/>
<path d="M269.14 30.6697C269.14 30.6697 272.61 25.9697 280.47 29.0397" stroke="white" stroke-miterlimit="10" stroke-linecap="round"/>
<path d="M270.51 37.5697C271.51 37.5697 272.32 36.7593 272.32 35.7597C272.32 34.7601 271.51 33.9497 270.51 33.9497C269.51 33.9497 268.7 34.7601 268.7 35.7597C268.7 36.7593 269.51 37.5697 270.51 37.5697Z" stroke="white" stroke-miterlimit="10" stroke-linecap="round"/>
<path d="M277.61 36.8798C278.61 36.8798 279.42 36.0694 279.42 35.0698C279.42 34.0701 278.61 33.2598 277.61 33.2598C276.61 33.2598 275.8 34.0701 275.8 35.0698C275.8 36.0694 276.61 36.8798 277.61 36.8798Z" stroke="white" stroke-miterlimit="10" stroke-linecap="round"/>
<path d="M271.74 37.5698C271.74 37.5698 270.51 39.7898 272.33 40.4798C275.63 41.7298 276.18 37.5698 276.18 37.5698" stroke="white" stroke-miterlimit="10" stroke-linecap="round"/>
<path d="M269.14 40.29C269.14 40.29 269.14 43.47 273.32 43.16C277.5 42.85 277.61 40.67 277.61 40.67" stroke="white" stroke-miterlimit="10" stroke-linecap="round"/>
<path d="M270.51 45.45C270.51 45.45 272.16 47.38 274.99 46.86C277.82 46.34 280.58 44.23 280.58 44.23" stroke="white" stroke-miterlimit="10" stroke-linecap="round"/>
<path d="M268.12 52.1899C268.12 52.1899 265.93 57.5199 269.14 58.2299C269.14 58.2299 271.36 58.2899 270.51 60.4099C270.51 60.4099 272.68 63.4299 269.92 64.2699C269.92 64.2699 270.24 67.1599 267.67 66.5799" stroke="white" stroke-miterlimit="10" stroke-linecap="round"/>
<path d="M283.67 47.4399C283.67 47.4399 285.79 50.8499 283.99 53.5399C283.99 53.5399 280.85 53.9299 281.84 56.6199C281.84 56.6199 280.39 59.9599 283.79 60.7299C283.79 60.7299 284.24 62.7199 286.62 62.0799" stroke="white" stroke-miterlimit="10" stroke-linecap="round"/>
<path d="M289.23 17.53C289.23 17.53 287.33 3.89999 300.96 3.57999C314.59 3.25999 311.74 15.31 311.74 15.31C311.74 15.31 314.77 24.5 311.99 28.31C311.99 28.31 319.67 31.16 320.62 44.48C321.57 57.8 317.77 58.11 317.77 58.11L318.09 68.89C318.09 68.89 319.79 76.18 309.59 78.72C299.39 81.26 293.18 78.72 289.15 75.23C285.12 71.74 287.34 66.04 287.34 66.04C287.34 66.04 284.49 64.77 284.8 57.8C285.12 50.83 285.75 35.61 288.6 35.29C288.6 35.29 283.53 25.15 289.23 17.54V17.53Z" fill="#C6C9C6"/>
<path d="M291.01 17.2799C291.01 17.2799 295.83 10.7599 306.73 15.0099" stroke="white" stroke-width="2" stroke-miterlimit="10" stroke-linecap="round"/>
<path d="M292.91 26.8398C294.296 26.8398 295.42 25.7161 295.42 24.3298C295.42 22.9436 294.296 21.8198 292.91 21.8198C291.524 21.8198 290.4 22.9436 290.4 24.3298C290.4 25.7161 291.524 26.8398 292.91 26.8398Z" stroke="white" stroke-width="2" stroke-miterlimit="10" stroke-linecap="round"/>
<path d="M302.76 25.8901C304.146 25.8901 305.27 24.7664 305.27 23.3801C305.27 21.9939 304.146 20.8701 302.76 20.8701C301.374 20.8701 300.25 21.9939 300.25 23.3801C300.25 24.7664 301.374 25.8901 302.76 25.8901Z" stroke="white" stroke-width="2" stroke-miterlimit="10" stroke-linecap="round"/>
<path d="M294.61 26.8501C294.61 26.8501 292.91 29.9301 295.42 30.8901C300 32.6301 300.77 26.8501 300.77 26.8501" stroke="white" stroke-width="2" stroke-miterlimit="10" stroke-linecap="round"/>
<path d="M291.01 30.6299C291.01 30.6299 291.01 35.0399 296.8 34.6099C302.59 34.1799 302.76 31.1499 302.76 31.1499" stroke="white" stroke-width="2" stroke-miterlimit="10" stroke-linecap="round"/>
<path d="M292.91 37.7801C292.91 37.7801 295.21 40.4501 299.13 39.7401C303.05 39.0301 306.89 36.0801 306.89 36.0801" stroke="white" stroke-width="2" stroke-miterlimit="10" stroke-linecap="round"/>
<path d="M289.59 47.1401C289.59 47.1401 286.55 54.5401 291.01 55.5201C291.01 55.5201 294.09 55.6101 292.91 58.5501C292.91 58.5501 295.92 62.7401 292.09 63.9001C292.09 63.9001 292.54 67.9101 288.97 67.1101" stroke="white" stroke-width="2" stroke-miterlimit="10" stroke-linecap="round"/>
<path d="M311.17 40.54C311.17 40.54 314.11 45.27 311.62 49.01C311.62 49.01 307.27 49.54 308.64 53.29C308.64 53.29 306.62 57.93 311.35 59C311.35 59 311.97 61.76 315.27 60.87" stroke="white" stroke-width="2" stroke-miterlimit="10" stroke-linecap="round"/>
</g>
<defs>
<clipPath id="clip0_40_1680">
<rect width="692.61" height="208.82" fill="white"/>
</clipPath>
</defs>
</svg>
