<svg fill="none" height="14" viewBox="0 0 8 14" width="8" xmlns="http://www.w3.org/2000/svg"><path clip-rule="evenodd" d="m.646039.646009c.046446-.046563.101621-.083506.162366-.108713.060746-.025206.125867-.038181.191635-.038181.06577 0 .13089.012975.19163.038181.06075.025207.11592.06215.16237.108713l6 6.000001c.04656.04644.0835.10162.10871.16237.02521.06074.03818.12586.03818.19163s-.01297.13089-.03818.19163c-.02521.06075-.06215.11592-.10871.16237l-6 5.99999c-.09389.0939-.22123.1466-.354.1466-.132777 0-.260114-.0527-.354001-.1466s-.146632-.2212-.146632-.354.052745-.2601.146632-.354l5.647001-5.64599-5.647001-5.646c-.046563-.04645-.083506-.10162-.108713-.16237-.025206-.06074-.03818-.12586-.03818-.19163 0-.065768.012974-.13089.03818-.191635.025207-.060745.06215-.11592.108713-.162366z" fill="#fff" fill-rule="evenodd"/></svg>