<svg fill="none" height="22" viewBox="0 0 22 22" width="22" xmlns="http://www.w3.org/2000/svg"><path clip-rule="evenodd" d="m15.207 13.793c.0928.0928.1665.2031.2167.3244.0503.1213.0761.2513.0761.3826s-.0258.2613-.0761.3826c-.0502.1213-.1239.2316-.2167.3244s-.2031.1665-.3244.2167c-.1213.0503-.2513.0761-.3826.0761s-.2613-.0258-.3826-.0761c-.1213-.0502-.2316-.1239-.3244-.2167l-2.793-2.793-2.793 2.793c-.09265.0932-.20281.1671-.32415.2176-.12133.0505-.25144.0764-.38285.0764s-.26152-.0259-.38285-.0764c-.12134-.0505-.2315-.1244-.32415-.2176-.09295-.0928-.16668-.203-.21699-.3243s-.07621-.2514-.07621-.3827.0259-.2614.07621-.3827.12404-.2315.21699-.3243l2.793-2.793-2.793-2.793c-.09284-.09285-.16649-.20307-.21674-.32437-.05025-.12131-.07611-.25133-.07611-.38263s.02586-.26132.07611-.38263c.05025-.1213.1239-.23153.21674-.32437s.20307-.16649.32437-.21674c.12131-.05025.25133-.07611.38263-.07611s.26132.02586.38263.07611c.1213.05025.23152.1239.32437.21674l2.793 2.793 2.793-2.793c.0928-.09284.2031-.16649.3244-.21674s.2513-.07611.3826-.07611.2613.02586.3826.07611.2316.1239.3244.21674.1665.20307.2167.32437c.0503.12131.0761.25133.0761.38263s-.0258.26132-.0761.38263c-.0502.1213-.1239.23152-.2167.32437l-2.793 2.793zm-4.207-13.793c-6.075 0-11 4.925-11 11s4.925 11 11 11 11-4.925 11-11-4.925-11-11-11z" fill="#212121" fill-opacity=".3" fill-rule="evenodd"/></svg>