<svg width="21" height="21" viewBox="0 0 21 21" fill="none" xmlns="http://www.w3.org/2000/svg">
<path fill-rule="evenodd" clip-rule="evenodd" d="M18.444 4.64608L11.3653 0.559829C11.2285 0.480955 11.0733 0.439442 10.9154 0.439453C10.7575 0.439465 10.6024 0.481001 10.4656 0.559894C10.3289 0.638788 10.2152 0.752264 10.1362 0.888938C10.0571 1.02561 10.0154 1.18068 10.0151 1.33858V2.59858C10.0153 3.38817 9.8076 4.16388 9.41284 4.84771C9.01809 5.53154 8.45024 6.09936 7.76639 6.49408L2.55751 9.50233C2.42068 9.58125 2.30704 9.69481 2.22803 9.83159C2.14902 9.96838 2.10742 10.1236 2.10742 10.2815C2.10742 10.4395 2.14902 10.5947 2.22803 10.7314C2.30704 10.8682 2.42068 10.9818 2.55751 11.0607L7.27814 13.7855C7.23701 13.8336 7.18714 13.8695 7.15564 13.9255L4.13164 19.1623C3.9984 19.4031 3.965 19.6865 4.03861 19.9516C4.11222 20.2168 4.28697 20.4424 4.52525 20.58C4.76354 20.7176 5.04631 20.7562 5.31274 20.6874C5.57917 20.6187 5.80796 20.4481 5.94989 20.2123L8.97389 14.9763C9.00626 14.9195 9.01239 14.8582 9.03251 14.7996L13.754 17.5243C13.8907 17.6033 14.0458 17.6448 14.2037 17.6448C14.3616 17.6448 14.5167 17.6033 14.6534 17.5244C14.7901 17.4455 14.9037 17.332 14.9827 17.1952C15.0616 17.0585 15.1032 16.9035 15.1033 16.7456V10.7308C15.1033 9.12345 15.9599 7.63858 17.352 6.83533L18.444 6.20533C18.5811 6.12647 18.6949 6.01288 18.774 5.876C18.8532 5.73913 18.8949 5.58381 18.8949 5.4257C18.8949 5.26759 18.8532 5.11228 18.774 4.9754C18.6949 4.83853 18.5811 4.72494 18.444 4.64608Z" fill="#1882FF"/>
</svg>
