<svg width="20" height="22" viewBox="0 0 20 22" fill="none" xmlns="http://www.w3.org/2000/svg">
<path fill-rule="evenodd" clip-rule="evenodd" d="M14.8454 5.64328C14.8455 6.2861 14.7189 6.92264 14.473 7.51655C14.2271 8.11047 13.8666 8.65012 13.4121 9.10471C12.9576 9.5593 12.418 9.91992 11.8241 10.166C11.2303 10.412 10.5937 10.5387 9.95092 10.5388C8.65269 10.5389 7.40757 10.0233 6.48949 9.10542C5.57141 8.18752 5.05556 6.94251 5.05542 5.64428C5.05536 5.00146 5.18191 4.36492 5.42784 3.77101C5.67378 3.17709 6.03429 2.63743 6.48878 2.18285C7.40668 1.26476 8.65169 0.748912 9.94992 0.748779C11.2482 0.748647 12.4933 1.26424 13.4114 2.18214C14.3294 3.10003 14.8453 4.34504 14.8454 5.64328M9.95042 12.0363C2.90142 12.0363 0.159424 16.5223 0.159424 18.6093C0.159424 20.6953 5.99642 21.2513 9.95042 21.2513C13.9044 21.2513 19.7414 20.6953 19.7414 18.6093C19.7414 16.5223 16.9994 12.0363 9.95042 12.0363Z" fill="#212121"/>
</svg>
