<svg width="20" height="20" viewBox="0 0 20 20" fill="none" xmlns="http://www.w3.org/2000/svg">
<path d="M19.6559 17.9913L15.1392 13.4748C16.2029 12.0651 16.8412 10.3181 16.8412 8.42017C16.8412 3.77727 13.0627 0 8.42059 0C3.77745 0.000980344 0 3.77825 0 8.42116C0 13.0631 3.77745 16.8413 8.42059 16.8413C10.3176 16.8413 12.0657 16.2031 13.4755 15.1395L17.9922 19.6559C18.2216 19.8853 18.5225 20 18.8235 20C19.1245 20 19.4255 19.8853 19.6559 19.6549C20.1147 19.1961 20.1147 18.4511 19.6559 17.9913ZM2.35294 8.42116C2.35294 5.07524 5.07451 2.35381 8.42059 2.35381C11.7657 2.35381 14.4873 5.07524 14.4873 8.42017C14.4873 11.7651 11.7657 14.4865 8.42059 14.4865C5.07451 14.4875 2.35294 11.7661 2.35294 8.42116Z" fill="#8E8E93"/>
</svg>
