<svg width="22" height="21" viewBox="0 0 22 21" fill="none" xmlns="http://www.w3.org/2000/svg">
<path d="M0.821411 10.45C0.821411 16.245 5.47641 20.9 11.2714 20.9C17.0664 20.9 21.7214 16.245 21.7214 10.45C21.7214 4.655 17.0664 0 11.2714 0C5.47641 0 0.821411 4.655 0.821411 10.45ZM6.04641 10.45C6.04641 9.88 6.42641 9.5 6.99641 9.5H13.2664L11.0814 7.315C10.7014 6.935 10.7014 6.365 11.0814 5.985C11.4614 5.605 12.0314 5.605 12.4114 5.985L16.2114 9.785C16.5914 10.165 16.5914 10.735 16.2114 11.115L12.4114 14.915C12.2214 15.105 12.0314 15.2 11.7464 15.2C11.4614 15.2 11.2714 15.105 11.0814 14.915C10.7014 14.535 10.7014 13.965 11.0814 13.585L13.2664 11.4H6.99641C6.52141 11.4 6.04641 11.02 6.04641 10.45Z" fill="white"/>
</svg>
