<svg width="24" height="24" viewBox="0 0 24 24" fill="none" xmlns="http://www.w3.org/2000/svg">
<path fill-rule="evenodd" clip-rule="evenodd" d="M23.7769 22.1029L19.8716 16.6057C19.5489 16.1552 19.0812 15.8309 18.5478 15.688L18.4864 15.7623C17.4695 16.9737 16.1764 18.3337 14.4152 20.0457C13.7692 20.6743 12.9051 21.0248 12.0063 21.0229C11.1079 21.0254 10.2441 20.6752 9.59851 20.0469C7.80093 18.2983 6.4874 16.912 5.46248 15.6846C4.92431 15.8251 4.45198 16.1506 4.12736 16.6046L0.221989 22.1029C0.0946362 22.2824 0.0189033 22.4936 0.00310341 22.7135C-0.0126965 22.9335 0.0320476 23.1535 0.132424 23.3495C0.2328 23.5455 0.384929 23.7099 0.57211 23.8247C0.759291 23.9395 0.974288 24.0001 1.1935 24H22.8054C23.7758 24 24.3394 22.8972 23.7758 22.1029" fill="#8E8E93"/>
<path fill-rule="evenodd" clip-rule="evenodd" d="M12.0052 5.48769C12.3078 5.48074 12.6088 5.53466 12.8904 5.6463C13.1721 5.75794 13.4287 5.92505 13.6452 6.13781C13.8617 6.35057 14.0338 6.6047 14.1514 6.88527C14.2689 7.16585 14.3295 7.46722 14.3297 7.77168C14.3298 8.07615 14.2695 8.37758 14.1523 8.65827C14.035 8.93896 13.8632 9.19326 13.6468 9.40624C13.4305 9.61922 13.1741 9.78659 12.8926 9.89851C12.611 10.0104 12.3101 10.0647 12.0075 10.058C11.4048 10.0582 10.8267 9.81749 10.4004 9.38894C9.9741 8.96039 9.73453 8.37906 9.73438 7.77285C9.73423 7.16664 9.97351 6.58519 10.3996 6.15643C10.8257 5.72767 11.4036 5.4867 12.0064 5.48655M11.1791 18.4032C11.4022 18.6178 11.6991 18.7374 12.0077 18.7372C12.3164 18.737 12.6131 18.6169 12.8358 18.4021C18.0831 13.3026 19.7353 10.7449 19.7353 7.77342C19.7353 2.74025 14.9777 -1.17634 9.73949 0.324238C6.43294 1.27281 4.27856 4.31512 4.27856 7.77342C4.27856 10.7472 5.93184 13.3037 11.1791 18.4021" fill="#8E8E93"/>
</svg>
