<svg width="24" height="17" viewBox="0 0 24 17" fill="none" xmlns="http://www.w3.org/2000/svg">
<ellipse cx="12.092" cy="8.29223" rx="2.6287" ry="2.5974" fill="#1882FF"/>
<path fill-rule="evenodd" clip-rule="evenodd" d="M11.9606 13.6948C9.01643 13.6948 6.70318 11.3052 6.70318 8.5C6.70318 5.69481 9.12158 3.30519 11.9606 3.30519C14.7996 3.30519 17.218 5.69481 17.218 8.5C17.218 11.3052 14.9047 13.6948 11.9606 13.6948ZM23.5268 7.14935C20.793 2.99351 16.4819 0.5 11.9606 0.5C7.43921 0.5 3.12815 2.99351 0.394304 7.14935C-0.131435 7.98052 -0.131435 9.01948 0.394304 9.85065C3.12815 14.0065 7.43921 16.5 11.9606 16.5C16.4819 16.5 20.793 14.0065 23.5268 9.85065C24.1577 9.01948 24.1577 7.98052 23.5268 7.14935Z" fill="#1882FF"/>
</svg>
